<?xml version="1.0" standalone="no"?>
<!DOCTYPE svg PUBLIC "-//W3C//DTD SVG 20010904//EN"
 "http://www.w3.org/TR/2001/REC-SVG-20010904/DTD/svg10.dtd">
<svg version="1.0" xmlns="http://www.w3.org/2000/svg"
 width="256.000000pt" height="256.000000pt" viewBox="0 0 256.000000 256.000000"
 preserveAspectRatio="xMidYMid meet">

<g transform="translate(0.000000,256.000000) scale(0.100000,-0.100000)"
fill="#000000" stroke="none">
<path d="M1082 2539 c-16 -6 -22 -15 -18 -26 16 -56 27 -136 19 -143 -4 -4
-51 -19 -103 -34 -52 -14 -145 -51 -207 -81 -61 -30 -115 -55 -120 -55 -4 0
-25 27 -47 60 -46 71 -48 73 -71 56 -17 -12 -15 -19 40 -105 32 -50 60 -91 64
-91 3 0 20 9 36 21 17 11 66 38 109 60 62 32 81 38 87 27 5 -7 36 -96 70 -196
57 -171 63 -183 83 -178 105 31 142 36 241 36 129 0 155 -5 155 -31 0 -17 -7
-18 -87 -13 -157 11 -304 -37 -427 -136 -33 -27 -67 -57 -74 -65 -8 -9 -19
-12 -26 -8 -56 33 -456 329 -456 337 0 6 26 36 57 68 l58 58 -38 37 c-35 35
-38 37 -54 20 -13 -13 -15 -19 -5 -29 21 -21 13 -39 -45 -102 -31 -33 -77 -92
-101 -129 -44 -69 -48 -71 -94 -52 -11 4 -20 0 -27 -13 -9 -18 -5 -23 33 -46
25 -14 51 -26 58 -26 7 0 32 34 56 76 24 41 49 77 57 80 8 4 52 -22 102 -58
147 -108 413 -298 417 -298 2 0 35 31 73 69 98 98 233 161 346 161 40 0 48 -3
45 -17 -2 -11 -25 -22 -76 -35 -223 -54 -373 -240 -372 -462 1 -149 40 -239
153 -349 l80 -79 -43 -81 c-24 -45 -46 -86 -50 -90 -23 -26 -212 140 -287 252
-1 2 -17 -6 -36 -18 -19 -11 -39 -21 -44 -21 -6 0 -31 38 -57 84 l-47 84 -42
-18 c-23 -11 -45 -16 -49 -12 -12 13 -37 156 -47 275 -6 65 -13 122 -16 127
-3 6 -28 10 -54 10 -26 0 -76 3 -110 7 l-62 6 3 56 3 56 -45 11 c-38 10 -47 9
-58 -4 -17 -22 -11 -35 19 -42 24 -6 24 -7 20 -106 -2 -54 -5 -100 -6 -102 -3
-3 -30 -10 -48 -11 -5 -1 -7 -11 -5 -23 3 -20 10 -23 56 -26 37 -2 52 1 53 10
0 7 1 38 2 68 l2 55 85 -3 c47 -2 88 -7 92 -10 4 -4 12 -56 18 -117 11 -115
39 -250 67 -323 17 -45 9 -70 -20 -59 -14 5 -46 84 -67 165 -6 23 -16 42 -23
42 -7 0 -61 -13 -122 -28 -84 -22 -111 -32 -113 -46 -7 -32 12 -34 105 -11 67
16 95 19 102 11 4 -6 16 -36 26 -66 9 -30 37 -93 62 -139 43 -81 44 -85 27
-98 -17 -12 -22 -11 -41 14 -13 15 -28 40 -34 55 -6 16 -16 28 -21 28 -11 0
-68 -28 -85 -42 -17 -14 3 -52 23 -44 8 3 20 9 28 12 9 3 30 -19 62 -66 27
-40 54 -79 59 -87 7 -10 5 -18 -8 -28 -21 -15 -19 -48 3 -52 8 -2 32 12 53 29
l38 33 -30 35 c-17 19 -30 41 -31 47 0 7 16 23 35 35 42 27 43 36 10 84 -33
49 -32 61 10 81 40 19 40 18 19 68 -37 89 24 88 76 -1 46 -80 130 -190 219
-287 l71 -78 -67 -99 c-37 -55 -73 -100 -78 -100 -6 0 -26 11 -45 25 -37 27
-45 25 -82 -27 -19 -27 -19 -31 -5 -46 15 -14 18 -14 35 1 10 9 22 17 26 17 4
0 38 -22 77 -49 39 -28 76 -52 82 -54 9 -3 8 -11 -3 -31 -12 -24 -12 -28 0
-36 8 -6 20 -10 26 -10 10 0 54 70 54 87 0 4 -25 23 -55 41 -30 18 -55 38 -55
43 0 5 35 62 79 127 l78 117 -55 60 c-106 116 -182 208 -182 222 0 30 36 9 93
-52 147 -161 343 -250 572 -260 65 -3 101 -9 106 -17 3 -7 9 -41 13 -76 4 -49
3 -64 -8 -68 -8 -3 -63 -9 -123 -12 l-108 -7 -10 -100 c-11 -111 -10 -110 -92
-92 -32 6 -33 6 -48 -45 -12 -41 -12 -53 -3 -60 23 -14 38 -8 48 18 10 26 11
26 83 19 117 -10 125 -13 129 -43 2 -21 8 -27 28 -27 24 0 25 3 25 55 l0 55
-60 5 -60 5 4 75 c2 41 5 78 8 82 2 5 32 8 66 8 93 0 221 18 325 45 113 30
112 30 112 6 0 -21 -68 -52 -162 -73 -28 -7 -48 -17 -48 -25 0 -11 23 -121 45
-220 6 -24 21 -29 43 -14 10 6 9 26 -8 101 -11 52 -17 97 -12 100 4 4 43 19
87 34 44 15 108 43 142 61 56 31 64 33 78 19 23 -24 19 -29 -40 -60 -30 -16
-55 -33 -55 -39 1 -18 39 -95 47 -95 23 1 35 19 29 47 -7 28 -3 32 74 81 45
29 85 52 90 52 5 0 13 -7 18 -16 6 -11 16 -14 31 -9 29 9 27 24 -10 68 l-31
37 -41 -30 -42 -31 -22 25 c-12 14 -26 34 -32 43 -11 19 -7 20 -83 -26 l-37
-22 -21 41 c-16 31 -26 40 -38 36 -91 -30 -188 -56 -219 -58 l-38 -3 -11 92
c-7 50 -13 96 -15 102 -3 7 -52 12 -139 14 -108 2 -150 7 -213 27 -44 13 -81
28 -83 35 -3 6 20 57 51 114 30 56 55 108 55 114 0 7 -25 27 -56 46 -106 64
-180 189 -191 322 -6 72 11 169 30 169 7 0 40 -12 74 -26 l62 -27 -1 -67 c-1
-115 50 -200 147 -246 80 -38 187 -31 257 18 14 10 29 18 32 18 3 0 174 -135
380 -300 206 -164 384 -305 395 -312 18 -11 23 -10 38 5 17 17 17 19 -7 37
-14 10 -173 137 -355 282 -181 145 -358 285 -392 312 l-62 48 -38 -31 c-65
-52 -140 -64 -213 -35 -43 18 -48 28 -25 54 13 14 22 15 54 7 67 -18 137 14
181 81 15 23 20 24 548 58 294 18 538 36 543 40 5 3 9 14 9 25 0 25 8 25 -474
-6 -573 -37 -650 -43 -654 -54 -12 -36 -52 -78 -86 -89 -33 -11 -43 -10 -82 7
l-44 20 -20 -26 c-11 -14 -20 -30 -20 -34 0 -5 -6 -9 -14 -9 -23 0 -49 83 -43
137 3 27 9 58 12 70 5 16 2 23 -17 28 -12 5 -56 23 -96 41 l-73 34 18 31 c25
43 112 123 161 148 50 26 144 51 189 51 32 0 33 1 33 40 0 48 14 57 70 42 35
-9 42 -8 50 8 6 10 10 28 10 40 0 11 7 23 16 27 13 5 79 -12 131 -33 7 -3 21
13 34 38 12 24 23 45 25 47 2 2 28 -15 58 -38 30 -22 58 -41 63 -41 4 0 22 14
40 32 l33 32 28 -27 c35 -33 42 -33 72 -2 31 33 45 32 72 -5 26 -36 32 -37 74
-5 18 14 39 25 46 25 14 0 73 -88 109 -162 13 -27 28 -48 33 -48 17 1 129 65
133 76 1 5 -2 16 -7 24 -8 12 -15 11 -55 -8 -25 -12 -47 -22 -49 -22 -3 0 -20
29 -40 64 -19 35 -61 96 -92 135 -53 68 -63 101 -32 101 7 0 28 -21 47 -46 31
-41 35 -44 55 -31 11 8 31 20 44 28 26 16 28 32 7 49 -12 10 -19 10 -27 2 -23
-23 -43 -10 -105 62 -59 70 -61 74 -46 96 14 20 14 23 -1 38 -15 15 -19 13
-51 -18 -19 -19 -35 -38 -35 -44 0 -6 16 -27 36 -47 l37 -38 -31 -38 -30 -38
29 -35 c34 -40 36 -56 10 -69 -16 -9 -30 0 -89 57 -38 38 -102 90 -141 117
-39 27 -71 55 -71 62 0 7 23 59 51 115 48 96 50 103 33 115 -26 19 -33 9 -103
-139 l-60 -127 57 -31 c65 -35 182 -125 182 -141 0 -28 -36 -15 -112 43 -80
61 -204 129 -261 143 -15 4 -27 14 -27 24 0 9 16 87 37 174 31 135 35 160 22
168 -8 5 -18 7 -24 6 -8 -3 -101 -343 -104 -383 -1 -6 34 -24 77 -39 79 -27
220 -104 243 -131 10 -12 9 -18 -4 -31 -14 -14 -20 -13 -64 19 -93 68 -213
119 -333 142 l-65 12 3 170 c1 93 5 192 8 220 5 47 3 52 -18 57 -12 4 -26 3
-29 -1 -13 -13 -27 -486 -15 -494 6 -4 27 -8 46 -8 90 -1 280 -68 280 -99 -1
-38 -15 -44 -66 -28 -148 48 -320 56 -489 22 l-30 -6 -55 163 c-30 90 -55 168
-55 173 0 11 136 53 175 55 53 1 55 8 35 125 -10 58 -21 107 -24 109 -3 2 -16
0 -29 -5z"/>
</g>
</svg>
